<?xml version="1.0" encoding="UTF-8"?>
<svg xmlns="http://www.w3.org/2000/svg" width="760" height="720" viewBox="0 0 760 720" role="img" aria-labelledby="title desc">
  <title id="title">Ashfall Junction construction map</title>
  <desc id="desc">Top-down map of the four-way intersection, collision boundaries, traffic light, landmarks, and player spawns.</desc>
  <style>
    text { font: 12px ui-monospace, monospace; fill: #e9eef0; paint-order: stroke; stroke: #172025; stroke-width: 3px; stroke-linejoin: round; }
    .road { fill: #293036; stroke: #59646a; stroke-width: 2; }
    .sidewalk { fill: #8b8d89; stroke: #c1bcaf; stroke-width: 2; }
    .building { fill: #704941; stroke: #d09a77; stroke-width: 2; }
    .boundary { fill: none; stroke: #ff5a57; stroke-width: 8; }
    .spawn { fill: #44ef91; stroke: #102d20; stroke-width: 2; }
    .landmark { fill: #ffe270; stroke: #493f12; stroke-width: 2; }
    .collision { fill: none; stroke: #ff9b61; stroke-width: 2; stroke-dasharray: 8 5; }
  </style>
  <rect width="760" height="720" fill="#172025"/>
  <text id="map-data" x="70" y="32">layout: footprint=56;road=12;sidewalk=4;edge=28</text>
  <rect x="70" y="70" width="560" height="560" fill="#596167"/>
  <rect class="sidewalk" x="70" y="70" width="220" height="220"/>
  <rect class="sidewalk" x="410" y="70" width="220" height="220"/>
  <rect class="sidewalk" x="70" y="410" width="220" height="220"/>
  <rect class="sidewalk" x="410" y="410" width="220" height="220"/>
  <rect class="road" x="70" y="290" width="560" height="120"/>
  <rect class="road" x="290" y="70" width="120" height="560"/>
  <rect x="310" y="310" width="80" height="80" fill="none" stroke="#f1e5bc" stroke-width="8" stroke-dasharray="12 7"/>
  <g class="building">
    <rect x="90" y="100" width="140" height="120"/>
    <rect x="475" y="100" width="130" height="120"/>
    <rect x="95" y="480" width="130" height="120"/>
    <rect x="470" y="480" width="140" height="120"/>
  </g>
  <rect class="boundary" x="75" y="75" width="550" height="550"/>
  <rect class="collision" x="290" y="290" width="120" height="120"/>
  <g><circle cx="350" cy="160" r="6" class="spawn"/><text x="359" y="152">player-default</text></g>
<g><circle cx="350" cy="140" r="6" class="spawn"/><text x="359" y="132">approach-north</text></g>
<g><circle cx="560" cy="350" r="6" class="spawn"/><text x="569" y="342">approach-east</text></g>
<g><circle cx="350" cy="560" r="6" class="spawn"/><text x="359" y="552">approach-south</text></g>
<g><circle cx="140" cy="350" r="6" class="spawn"/><text x="149" y="342">approach-west</text></g>
<g><circle cx="260" cy="260" r="6" class="spawn"/><text x="269" y="252">corner-northwest</text></g>
<g><circle cx="440" cy="260" r="6" class="spawn"/><text x="449" y="252">corner-northeast</text></g>
<g><circle cx="260" cy="440" r="6" class="spawn"/><text x="269" y="432">corner-southwest</text></g>
<g><circle cx="440" cy="440" r="6" class="spawn"/><text x="449" y="432">corner-southeast</text></g>
  <g><path d="M 432 261 l 7 14 h -14 z" class="landmark"/><text x="441" y="272">Signal Corner</text></g>
<g><path d="M 350 133 l 7 14 h -14 z" class="landmark"/><text x="359" y="144">North Approach</text></g>
<g><path d="M 560 343 l 7 14 h -14 z" class="landmark"/><text x="569" y="354">East Approach</text></g>
<g><path d="M 350 553 l 7 14 h -14 z" class="landmark"/><text x="359" y="564">South Approach</text></g>
<g><path d="M 140 343 l 7 14 h -14 z" class="landmark"/><text x="149" y="354">West Approach</text></g>
  <g><rect x="426" y="262" width="12" height="12" fill="#ff453a"/><text x="442" y="285">traffic light</text></g>
  <g><rect x="447" y="260" width="10" height="10" fill="#48dbe0"/><text x="461" y="269">signal controller</text></g>
  <g transform="translate(665 75)"><path d="M 0 45 L 18 0 L 36 45 L 18 34 Z" fill="#f2f3f3"/><text x="13" y="62" font-size="18">N</text></g>
  <g transform="translate(70 655)">
    <text x="0" y="0">LEGEND</text><circle cx="20" cy="25" r="6" class="spawn"/><text x="35" y="29">player spawn</text>
    <path d="M 170 18 l 7 14 h -14 z" class="landmark"/><text x="185" y="29">landmark</text>
    <rect x="305" y="18" width="18" height="12" fill="#ff453a"/><text x="332" y="29">traffic light</text>
    <line x1="465" y1="24" x2="500" y2="24" class="boundary"/><text x="512" y="29">solid boundary collision</text>
    <text x="0" y="52">Road 12m (2 x 3m lanes + margins) · sidewalks/corners rise 0.20m · map scale 10px/m</text>
  </g>
</svg>